<?xml version="1.0" encoding="utf-8"?>
<!-- Generator: Adobe Illustrator 22.0.1, SVG Export Plug-In . SVG Version: 6.00 Build 0)  -->
<svg version="1.1" id="Layer_1" xmlns="http://www.w3.org/2000/svg" xmlns:xlink="http://www.w3.org/1999/xlink" x="0px" y="0px"
	 viewBox="0 0 512 512" style="enable-background:new 0 0 512 512;" xml:space="preserve">
<style type="text/css">
	.st0{fill:none;stroke:#FFFFFF;stroke-width:32;stroke-miterlimit:10;}
	.st1{fill:none;stroke:#FFFFFF;stroke-width:32;stroke-linecap:round;stroke-linejoin:round;}
</style>
<title>Globe</title>
<path class="st0" d="M256,48C141.1,48,48,141.1,48,256s93.1,208,208,208s208-93.1,208-208S370.9,48,256,48z"/>
<path class="st0" d="M256,48c-58.1,0-112.7,93.1-112.7,208S197.9,464,256,464s112.7-93.1,112.7-208S314.1,48,256,48z"/>
<path class="st1" d="M117.3,117.3c38.2,27.1,86.4,43.3,138.7,43.3s100.4-16.2,138.7-43.3 M394.7,394.7
	c-38.2-27.1-86.4-43.3-138.7-43.3s-100.4,16.2-138.7,43.3"/>
<path class="st0" d="M256,48v416 M464,256H48"/>
</svg>
