<?xml version="1.0" encoding="UTF-8"?><!DOCTYPE svg PUBLIC "-//W3C//DTD SVG 1.1//EN" "http://www.w3.org/Graphics/SVG/1.1/DTD/svg11.dtd"><svg xmlns="http://www.w3.org/2000/svg"><symbol id="arrow-double" viewBox="0 0 11 11"><path d="M6.4 6l-4.7 4.7c-.3.3-.8.3-1.1 0-.3-.3-.3-.8 0-1.1l4.2-4.2L.6 1.3C.3 1 .3.5.6.2c.3-.3.8-.3 1.1 0L6.4 5c.2.2.2.3.2.5s0 .4-.2.5z"/><path d="M10.8 6L6 10.8c-.3.3-.8.3-1.1 0-.2-.3-.2-.8.1-1.1l4.2-4.2L5 1.3C4.7 1 4.7.5 5 .2c.3-.3.8-.3 1.1 0L10.8 5c.1.1.2.3.2.5s-.1.4-.2.5z"/></symbol><symbol id="arrow-nextprev" viewBox="0 0 42 72"><style>.st0{fill:#231f20}</style><path class="st0" d="M1.5 72c-.4 0-.8-.2-1.1-.5-.5-.6-.5-1.6.1-2.1L38.2 36 .5 2.6C-.1 2.1-.2 1.1.4.5.9-.1 1.9-.2 2.5.4l39 34.5c.3.3.5.7.5 1.1s-.2.8-.5 1.1l-39 34.5c-.3.3-.6.4-1 .4z"/></symbol><symbol id="arrow-pointer-thin" viewBox="0 0 15 17"><style>.st0{fill:#4d4d4f}</style><path class="st0" d="M13.9 10.4l-6 6c-.1.1-.2.2-.3.2-.1 0-.3-.1-.3-.2l-6-6c-.3-.2-.3-.5-.1-.7.1-.1.2-.1.3-.1.1 0 .3 0 .4.1L7 14.9V.9c0-.3.2-.5.5-.5s.5.3.5.5v14l5.2-5.2c.2-.2.5-.2.7 0 .1.2.1.5 0 .7z"/></symbol><symbol id="arrow" viewBox="0 0 7 11"><path d="M6.4 6l-4.7 4.7c-.3.3-.8.3-1.1 0-.3-.3-.3-.8 0-1.1l4.2-4.2L.6 1.3C.3 1 .3.5.6.2c.3-.3.8-.3 1.1 0L6.4 5c.2.2.2.3.2.5s0 .4-.2.5z"/></symbol><symbol id="benefit-checkmark" viewBox="0 0 15 15"><path d="M5.2 12.5c-.1 0-.2 0-.3-.1L.3 7.8c-.2-.2-.2-.5 0-.6s.5-.2.7 0l4.2 4.2L14 2.6c.2-.2.5-.2.6 0 .2.2.2.5 0 .6l-9.1 9.1c-.1.2-.2.2-.3.2z"/></symbol><symbol id="benefit-flag" viewBox="0 0 15 15"><path d="M12.1 14.8c-.1 0-.3-.1-.4-.2L7.5 8.3l-4.2 6.3c-.1.2-.3.2-.5.2-.2-.1-.3-.2-.3-.4V.6c0-.3.2-.5.5-.5h9.1c.3 0 .5.2.5.5v13.7c0 .2-.1.4-.3.4-.1.1-.2.1-.2.1zM7.5 7c.2 0 .3.1.4.2l3.7 5.6V1.1H3.4v11.7l3.7-5.6c.1-.1.2-.2.4-.2z"/></symbol><symbol id="benefit-lock" viewBox="0 0 15 15"><path d="M12.5 14.8h-10c-.3 0-.5-.2-.5-.5V6.5c0-.3.2-.5.5-.5h10.1c.3 0 .5.2.5.5v7.8c-.1.3-.3.5-.6.5zm-9.6-.9H12V7H2.9v6.9z"/><path d="M8 12.8H7c-.3 0-.5-.2-.5-.5v-1.5c-.4-.3-.6-.7-.6-1.2 0-.9.7-1.6 1.6-1.6.9 0 1.6.7 1.6 1.6 0 .5-.2.9-.6 1.2v1.5c0 .3-.2.5-.5.5zm-.6-.9h.2v-1.3c0-.2.1-.3.2-.4.2-.1.4-.3.4-.5 0-.4-.3-.7-.7-.7s-.7.3-.7.7c0 .2.1.5.4.6.1.1.2.2.2.4v1.2zM3.1 7c-.2 0-.4-.2-.4-.5V4.9C2.7 2.3 4.9.1 7.5.1c2.6 0 4.8 2.1 4.8 4.7v1.6h-.9V4.8C11.4 2.7 9.6 1 7.5 1c-2.1.1-3.9 1.8-3.9 4v1.6c0 .2-.2.4-.5.4z"/></symbol><symbol id="benefit-magnifier" viewBox="0 0 15 15"><path d="M5.5 10.8c-1.4 0-2.8-.6-3.8-1.6-2.1-2.1-2.1-5.5 0-7.5C2.7.7 4 .1 5.5.1s2.8.6 3.8 1.6 1.6 2.3 1.6 3.8c0 1.4-.6 2.8-1.6 3.8s-2.4 1.5-3.8 1.5zm0-9.7c-1.2 0-2.3.5-3.1 1.3C.7 4.1.7 6.9 2.4 8.6c.8.8 1.9 1.3 3.1 1.3s2.3-.5 3.1-1.3c.8-.8 1.3-1.9 1.3-3.1 0-1.2-.5-2.3-1.3-3.1-.8-.8-1.9-1.3-3.1-1.3z"/><path d="M10 10.5c-.1 0-.2 0-.3-.1l-1-1c-.2-.2-.2-.5 0-.6.2-.2.5-.2.6 0l1 1c.2.2.2.5 0 .6-.1 0-.2.1-.3.1z"/><path d="M13.3 14.8c-.1 0-.2 0-.3-.1l-3.8-3.8c-.2-.2-.2-.5 0-.6l1-1c.2-.2.5-.2.6 0l3.8 3.8c.1.1.1.2.1.3 0 .1 0 .2-.1.3l-1 1c0 .1-.1.1-.3.1zm-3.1-4.2l3.1 3.1.4-.4-3.1-3.1-.4.4z"/></symbol><symbol id="benefit-refresh" viewBox="0 0 15 15"><path d="M14.4 12c-.2 0-.3-.1-.4-.2l-1.1-2.2-2.2.8c-.2.1-.5 0-.6-.3-.1-.2 0-.5.3-.6l2.6-1c.2-.1.5 0 .6.2l1.3 2.5c.1.2 0 .5-.2.6-.2.1-.3.2-.3.2zM1.8 6.2c-.2 0-.3-.1-.4-.3L.2 3.4c-.1-.2 0-.5.2-.6.2-.1.5 0 .6.2l1 2.2 2.2-.6c.2-.1.5.1.6.3s0 .5-.2.6L2 6.2h-.2z"/><path d="M1.8 6.2h-.1c-.2-.1-.4-.3-.3-.6.8-2.7 3.2-4.5 6-4.5s5.2 1.8 6 4.5c.1.2-.1.5-.3.6-.2.1-.5-.1-.6-.3C11.8 3.6 9.8 2 7.4 2 5 2 3 3.6 2.3 5.9c-.1.2-.3.3-.5.3zM7.4 13.9c-2.9 0-5.4-2-6.1-4.8 0-.2.1-.5.4-.5.2-.1.5.1.6.3C2.8 11.3 5 13 7.4 13c2.5 0 4.6-1.7 5.2-4.1.1-.2.3-.4.6-.3.2.1.4.3.3.6-.7 2.7-3.2 4.7-6.1 4.7z"/></symbol><symbol id="benefit-umbrella" viewBox="0 0 15 15"><path d="M13.4 7.5c-.2 0-.4-.2-.4-.5 0-3.3-2.5-5.9-5.5-5.9S2 3.7 2 7c0 .3-.2.5-.5.5s-.4-.2-.4-.5C1.1 3.2 4 .2 7.5.2s6.4 3.1 6.4 6.8c0 .3-.2.5-.5.5z"/><path d="M4.5 7.5c-.2 0-.4-.2-.4-.5 0-.6-.5-1.1-1-1.1S2 6.4 2 7c0 .3-.2.5-.5.5s-.4-.2-.4-.5c0-1.1.9-2 1.9-2 1.1 0 2 .9 2 2 0 .3-.2.5-.5.5z"/><path d="M7.5 7.5c-.3 0-.5-.2-.5-.5 0-.6-.5-1.1-1-1.1S5 6.4 5 7c0 .3-.2.5-.5.5s-.4-.2-.4-.5c0-1.1.9-2 1.9-2s2 .9 2 2c0 .3-.3.5-.5.5z"/><path d="M10.5 7.5c-.3 0-.5-.2-.5-.5 0-.6-.5-1.1-1-1.1-.6 0-1 .5-1 1.1 0 .3-.2.5-.5.5S7 7.3 7 7c0-1.1.9-2 2-2s1.9.9 1.9 2c0 .3-.2.5-.4.5z"/><path d="M13.4 7.5c-.2 0-.4-.2-.4-.5 0-.6-.5-1.1-1-1.1-.6 0-1 .5-1 1.1 0 .3-.2.5-.5.5S10 7.3 10 7c0-1.1.9-2 1.9-2s1.9.9 1.9 2c.1.3-.1.5-.4.5zM7.5 12.8c-.3 0-.5-.2-.5-.5v-6c0-.3.2-.5.5-.5s.5.3.5.6v6c0 .2-.2.4-.5.4z"/><path d="M5.6 14.8c-1.3 0-2.3-1-2.3-2.3 0-.3.2-.5.5-.5s.5.2.5.5c0 .8.6 1.4 1.4 1.4S7 13.3 7 12.5c0-.3.2-.5.5-.5s.5.2.5.5c0 1.3-1.1 2.3-2.4 2.3z"/></symbol><symbol id="brochure" viewBox="0 0 24 20"><path d="M7.7 8c-.1-.1-.1-.5-.1-.5V5.2h-1c-.1 0-.1 2.3-.1 2.3s0 .4-.2.5c-.2.2-.6.7-.6 1.2v5.2s0 .3.1.5c0 0 0 .1.1.1H8c.1 0 .1-.1.1-.1.1-.2.1-.5.1-.5V9.2c.1-.5-.3-1-.5-1.2z"/><path d="M21.4.5H2.5C1.2.5.1 1.6.1 2.9v14.4c0 1.3 1.1 2.4 2.4 2.4h18.9c1.3 0 2.4-1.1 2.4-2.4V2.9c0-1.3-1-2.4-2.4-2.4zm1.2 16.8c0 .7-.5 1.2-1.2 1.2H2.5c-.7 0-1.2-.5-1.2-1.2V2.9c0-.7.5-1.2 1.2-1.2h18.9c.7 0 1.2.5 1.2 1.2v14.4z"/><path d="M12.1 6.6h7v1h-7zM12.1 9.6h7v1h-7zM12.1 12.6h7v1h-7z"/></symbol><symbol id="checkmark" viewBox="0 0 20 14"><path d="M17.1.5C14 3.4 10.8 6.3 7.6 9.2 6 7.7 4.5 6.3 2.9 4.8 2.1 5.6 1.3 6.3.5 7c2.4 2.2 4.7 4.3 7.1 6.5 4-3.6 7.9-7.2 11.9-10.8-.8-.8-1.6-1.5-2.4-2.2z"/></symbol><symbol id="close" viewBox="0 0 22 22"><path d="M.3 18.5L7.8 11 .3 3.5 3.5.3 11 7.8 18.5.3l3.2 3.2-7.5 7.5 7.5 7.5-3.2 3.2-7.5-7.5-7.5 7.5-3.2-3.2z"/></symbol><symbol id="code" viewBox="0 0 15 15"><path d="M15 14.8h-4.5v-1H14v-3.5h1zM15 4.7h-1V1.2h-3.5v-1H15zM4.5 14.8H0v-4.5h1v3.5h3.5zM1 4.7H0V.2h4.5v1H1z"/><g><path d="M2.9 11.9V3.8h.8L6 9.2V3.8h.9v8.1h-.7L3.8 6.4v5.5h-.9zM8.2 11.9V3.8h1.6c.8 0 1.4.2 1.8.5.4.4.6.9.6 1.7 0 1-.3 1.7-1 1.9l1.2 4.1h-1.1l-1.1-3.8h-.9V12H8.2zm1.1-4.6h.4c.5 0 .8-.1 1.1-.3.2-.2.3-.5.3-1s-.1-.8-.3-1c-.2-.2-.5-.3-1-.3h-.5v2.6z"/></g></symbol><symbol id="compare-is-active" viewBox="0 0 20 20"><style>.st0{fill:#1eb1b0}</style><path class="st0" d="M10 1.2c-.3 0-.5.3-.5.8v1.6c0 .5.2.8.5.8s.5-.3.5-.8V2c0-.5-.2-.8-.5-.8zM10 6c-.3 0-.5.3-.5.8v1.6c0 .5.2.8.5.8s.5-.3.5-.8V6.8c0-.5-.2-.8-.5-.8zm0 4.8c-.3 0-.5.3-.5.8v1.6c0 .5.2.8.5.8s.5-.3.5-.8v-1.6c0-.5-.2-.8-.5-.8zm0 4.8c-.3 0-.5.3-.5.8V18c0 .5.2.8.5.8s.5-.3.5-.8v-1.6c0-.5-.2-.8-.5-.8zM3.9 14.4c-2.1 0-3.8-1.7-3.8-3.8s1.7-3.8 3.8-3.8 3.8 1.7 3.8 3.8-1.7 3.8-3.8 3.8zM18.5 15h-5.4V5.9h5.4V15z"/></symbol><symbol id="compare" viewBox="0 0 30 30"><path d="M16.1 3.8c-.6 0-1 .3-1 .8v1.6c0 .5.4.8 1 .8s1-.3 1-.8V4.6c0-.5-.3-.8-1-.8zm0 4.8c-.6 0-1 .3-1 .8V11c0 .5.4.8 1 .8s1-.3 1-.8V9.4c0-.5-.3-.8-1-.8zm0 4.8c-.6 0-1 .3-1 .8v1.6c0 .5.4.8 1 .8s1-.3 1-.8v-1.6c0-.5-.3-.8-1-.8zm0 4.8c-.6 0-1 .3-1 .8v1.6c0 .5.4.8 1 .8s1-.3 1-.8V19c0-.5-.3-.8-1-.8zm0 4.8c-.6 0-1 .3-1 .8v1.6c0 .5.4.8 1 .8s1-.3 1-.8v-1.6c0-.5-.3-.8-1-.8zM7.6 20.8c-3.1 0-5.6-2.5-5.6-5.6s2.5-5.6 5.6-5.6 5.6 2.5 5.6 5.6c-.1 3-2.6 5.6-5.6 5.6zm0-9.2c-2 0-3.6 1.6-3.6 3.6s1.6 3.6 3.6 3.6 3.6-1.6 3.6-3.6-1.7-3.6-3.6-3.6zM28 21.1h-7.9v-12H28v12zm-5.9-2H26V11h-3.9v8.1z"/></symbol><symbol id="diameter" viewBox="0 0 15 15"><path d="M14.6 1.1l-.7-.7-2.5 2.5C10.4 2 9 1.5 7.6 1.5c-3.3 0-6 2.7-6 6 0 1.5.5 2.8 1.4 3.8L.5 13.8l.7.7L3.7 12c1 .9 2.4 1.4 3.8 1.4 3.3 0 6-2.7 6-6 0-1.5-.5-2.8-1.4-3.8l2.5-2.5zM2.5 7.5c0-2.7 2.2-5 5-5 1.2 0 2.3.4 3.1 1.1l-7 7C3 9.8 2.5 8.7 2.5 7.5zm10 0c0 2.7-2.2 5-5 5-1.2 0-2.3-.4-3.1-1.1l7-7c.6.8 1.1 1.9 1.1 3.1z"/></symbol><symbol id="download-file" viewBox="-53 1 511 511.99906"><path d="M276.41 3.957C274.062 1.484 270.844 0 267.508 0H67.778C30.921 0 .5 30.3.5 67.152v377.692C.5 481.699 30.922 512 67.777 512h271.086c36.856 0 67.278-30.3 67.278-67.156V144.94c0-3.214-1.485-6.304-3.586-8.656zm3.586 39.7l84.469 88.671h-54.91c-16.325 0-29.559-13.11-29.559-29.433zm58.867 443.609H67.777c-23.125 0-42.543-19.168-42.543-42.422V67.152c0-23.125 19.293-42.418 42.543-42.418h187.485v78.16c0 30.051 24.242 54.168 54.293 54.168h71.851v287.782c0 23.254-19.293 42.422-42.543 42.422zm0 0"/><path d="M305.102 401.934H101.539c-6.8 0-12.367 5.562-12.367 12.367 0 6.8 5.566 12.367 12.367 12.367h203.688c6.8 0 12.367-5.566 12.367-12.367 0-6.805-5.567-12.367-12.492-12.367zm0 0M194.293 357.535c2.352 2.473 5.566 3.957 9.027 3.957 3.465 0 6.68-1.484 9.028-3.957l72.472-77.789c4.7-4.95 4.328-12.863-.617-17.437-4.95-4.7-12.863-4.332-17.437.617l-51.079 54.785V182.664c0-6.805-5.566-12.367-12.367-12.367-6.8 0-12.367 5.562-12.367 12.367v135.047L140 262.926c-4.7-4.946-12.492-5.317-17.438-.617-4.945 4.699-5.316 12.492-.617 17.437zm0 0"/></symbol><symbol id="download" viewBox="0 0 12 14"><path d="M10.2 5.8c.3-.3.8-.3 1.1 0 .3.3.3.8 0 1.1l-4.8 4.8c-.1.1-.4.2-.6.2-.2 0-.4-.1-.6-.2L.7 6.9c-.3-.3-.3-.8 0-1.1s.8-.3 1.1 0l3.4 3.4V1.4c0-.4.4-.8.8-.8s.8.4.8.8v7.8l3.4-3.4zM11.6 13.2c0 .4-.4.8-.8.8H1.2c-.4 0-.8-.4-.8-.8s.4-.8.8-.8h9.5c.5 0 .9.4.9.8z"/></symbol><symbol id="downloads" viewBox="0 0 50 43"><path d="M5 .6C3.4.6 2 2 2 3.6v36c0 1.6 1.4 3 3 3h40c1.6 0 3-1.4 3-3v-32c0-1.6-1.4-3-3-3H18c.1 0 0 0-.3-.3-.2-.3-.5-.7-.9-1.3s-.6-1-1.1-1.5-1-1-1.8-1H5zm0 2h9c-.1 0 .1 0 .3.3.2.3.5.7.9 1.2s.6 1 1 1.5 1 1 1.8 1h27c.6 0 1 .4 1 1v2.2c-.3-.1-.6-.2-1-.2H5c-.4 0-.7.1-1 .2V3.6c0-.5.4-1 1-1zm0 9h40c.6 0 1 .4 1 1v27c0 .6-.4 1-1 1H5c-.6 0-1-.4-1-1v-27c0-.5.4-1 1-1z"/><g><path d="M29.2 26.4c.3-.3.8-.3 1.1 0 .3.3.3.8 0 1.1l-4.8 4.8c-.1.1-.4.2-.6.2-.2 0-.4-.1-.6-.2l-4.6-4.8c-.3-.3-.3-.8 0-1.1.3-.3.8-.3 1.1 0l3.4 3.4V22c0-.4.4-.8.8-.8s.8.4.8.8v7.8l3.4-3.4zM30.6 33.8c0 .4-.4.8-.8.8h-9.6c-.4 0-.8-.4-.8-.8s.4-.8.8-.8h9.5c.5 0 .9.4.9.8z"/></g></symbol><symbol id="facebook" viewBox="0 0 23 23"><path d="M8.7 5.1V8H6.5v3.5h2.2V22h4.4V11.5h3s.3-1.7.4-3.5h-3.4V5.6c0-.4.5-.8 1-.8h2.4V1.1h-3.3c-4.6-.1-4.5 3.4-4.5 4z"/></symbol><symbol id="favourite-is-active" viewBox="0 0 20 20"><style>.st0{fill:#1eb1b0}</style><path class="st0" d="M15.3 18.1l-5.3-3-5.4 3 1.2-6-4.5-4.2 6.1-.7L10 1.6l2.6 5.6 6.1.7-4.5 4.2 1.1 6z"/></symbol><symbol id="favourite" viewBox="0 0 20 20"><style>.st0{fill:#030303}</style><path class="st0" d="M16 19.1l-6-3.4-6 3.4 1.3-6.8L.2 7.6l6.9-.8L10 .5l2.9 6.3 6.9.8-5.1 4.7 1.3 6.8zM4.5 9l2.8 2.6-.8 3.8 3.4-1.9 3.4 1.9-.7-3.8L15.5 9l-3.8-.5L10 5 8.4 8.5 4.5 9z"/></symbol><symbol id="file" viewBox="0 0 56 60"><path d="M48.1 14.5L36.7 3.1c-.2-.2-.5-.3-.8-.3H12.1c-2.5 0-4.5 2-4.5 4.5v45.3c0 2.5 2 4.5 4.5 4.5h31.7c2.5 0 4.5-2 4.5-4.5V15.3c.1-.3 0-.6-.2-.8zm-11-7.8l7.5 7.5h-5.2c-1.2 0-2.3-1-2.3-2.3V6.7zm9 46c0 1.2-1 2.3-2.3 2.3H12.1c-1.2 0-2.3-1-2.3-2.3V7.3c0-1.2 1-2.3 2.3-2.3h22.7v6.8c0 2.5 2 4.5 4.5 4.5h6.8v36.4z"/></symbol><symbol id="filter" viewBox="0 0 29 18"><path d="M13.1 3.6C12.7 1.8 11 .5 9.1.5s-3.5 1.3-4 3.1H0v2h5.1c.4 1.8 2.1 3.1 4 3.1s3.5-1.3 4-3.1H29v-2H13.1zm-4 3.1C7.9 6.7 7 5.7 7 4.6s.9-2.1 2.1-2.1 2.1.9 2.1 2.1-.9 2.1-2.1 2.1zM19.9 9.3c-1.9 0-3.5 1.3-4 3.1H0v2h15.9c.4 1.8 2.1 3.1 4 3.1s3.5-1.3 4-3.1H29v-2h-5.1c-.5-1.8-2.1-3.1-4-3.1zm0 6.2c-1.2 0-2.1-.9-2.1-2.1s.9-2.1 2.1-2.1 2.1.9 2.1 2.1-.9 2.1-2.1 2.1z"/></symbol><symbol id="height" viewBox="0 0 15 15"><style>.st0{fill:#949494}</style><path class="st0" d="M14.3.2H.8v1h6.7L4 5.3l.8.6L7 3.3v8.3L4.8 9.1l-.8.6 3.5 4.1H.8v1h13.5v-1H7.5L11 9.7l-.8-.6L8 11.7V3.3l2.2 2.6.8-.6-3.5-4.1h6.8z"/></symbol><symbol id="information" viewBox="0 0 15 15"><path d="M7.5 0C3.4 0 0 3.3 0 7.5S3.3 15 7.5 15 15 11.7 15 7.5 11.6 0 7.5 0zm.8 12.2H6.8V5.8h1.5v6.4zm0-7.9H6.8V2.8h1.5v1.5z"/></symbol><symbol id="instagram" viewBox="0 0 23 23"><g><path d="M11.5 2.2c3 0 3.4 0 4.6.1 1.1.1 1.7.2 2.1.4.5.2.9.5 1.3.9s.6.8.9 1.3c.2.4.3 1 .4 2.1.1 1.2.1 1.6.1 4.6 0 3 0 3.4-.1 4.6-.1 1.1-.2 1.7-.4 2.1-.2.5-.5.9-.9 1.3s-.8.6-1.3.9c-.4.2-1 .3-2.1.4-1.2.1-1.6.1-4.6.1-3 0-3.4 0-4.6-.1-1.1-.1-1.7-.2-2.1-.4-.5-.2-.9-.5-1.3-.9s-.6-.8-.9-1.3c-.2-.4-.3-1-.4-2.1-.1-1.2-.1-1.6-.1-4.6 0-3 0-3.4.1-4.6.1-1.1.2-1.7.4-2.1.2-.5.5-.9.9-1.3s.8-.6 1.3-.9c.4-.2 1-.3 2.1-.4 1.2-.1 1.6-.1 4.6-.1m0-2.1C8.4.1 8 .1 6.8.2 5.6.2 4.8.4 4 .7c-.7.3-1.3.7-2 1.3-.6.7-1 1.3-1.3 2-.3.8-.5 1.6-.5 2.8C.1 8 .1 8.4.1 11.5s0 3.5.1 4.7c.1 1.2.2 2 .5 2.8.3.7.7 1.3 1.3 2 .6.6 1.3 1 2 1.3.7.3 1.6.5 2.8.5 1.2.1 1.6.1 4.7.1s3.5 0 4.7-.1c1.2-.1 2-.2 2.8-.5.7-.3 1.4-.7 2-1.3.6-.6 1-1.3 1.3-2 .3-.7.5-1.6.5-2.8.1-1.2.1-1.6.1-4.7s0-3.5-.1-4.7c-.1-1.2-.2-2-.5-2.8-.3-.7-.7-1.3-1.3-2-.6-.6-1.3-1-2-1.3-.7-.3-1.6-.5-2.8-.5C15 .1 14.6.1 11.5.1z"/><path d="M11.5 5.7c-3.2 0-5.8 2.6-5.8 5.8 0 3.2 2.6 5.8 5.8 5.8 3.2 0 5.8-2.6 5.8-5.8 0-3.2-2.6-5.8-5.8-5.8zm0 9.6c-2.1 0-3.8-1.7-3.8-3.8 0-2.1 1.7-3.8 3.8-3.8 2.1 0 3.8 1.7 3.8 3.8 0 2.1-1.7 3.8-3.8 3.8zM18.9 5.4c0 .8-.6 1.4-1.4 1.4s-1.4-.6-1.4-1.4c0-.8.6-1.4 1.4-1.4s1.4.7 1.4 1.4z"/></g></symbol><symbol id="linkedin" viewBox="0 0 20.6 20"><path d="M20.3 12.1v7.4H16v-6.9c0-1.7-.6-2.9-2.2-2.9-1.2 0-1.9.8-2.2 1.6-.1.3-.1.7-.1 1v7.2H7.2s.1-11.6 0-12.8h4.3v1.8c.6-.9 1.6-2.1 3.9-2.1 2.8 0 4.9 1.8 4.9 5.7zM2.7.5C1.2.5.3 1.5.3 2.7c0 1.2.9 2.2 2.4 2.2s2.4-1 2.4-2.2C5.1 1.5 4.2.5 2.7.5zm-2.1 19h4.3V6.7H.6v12.8z"/></symbol><symbol id="mail" viewBox="0 0 47 28"><path d="M46.5 2.4c0-1.3-1.1-2.4-2.4-2.4L2.8.1c-.6 0-1.2.2-1.7.7-.4.4-.7 1-.7 1.7v23.2c0 .6.2 1.2.7 1.7.4.4 1 .7 1.7.7l41.3-.1c1.3 0 2.4-1.1 2.4-2.4V2.4zm-4.9 0L23.5 14.9 5.4 2.4h36.2zM31.1 17.3l10.7 8.3H5.1l10.8-8.4c.5-.4.6-1.1.2-1.7-.4-.5-1.1-.6-1.7-.2l-11.6 9V3.4l20 13.8c.2.1.4.2.7.2.2 0 .5-.1.7-.2l20-13.9v21l-11.6-9c-.5-.4-1.3-.3-1.7.2-.4.6-.3 1.4.2 1.8z"/></symbol><symbol id="newsletter" viewBox="0 0 512 512"><path d="M511.8 196c-.1-.7-.2-1.4-.5-2.2-.2-.7-.4-1.3-.6-1.8-.3-.8-.8-1.6-1.4-2.3-.4-.5-.8-1-1.2-1.4-.2-.2-.3-.4-.5-.6l-.2-.2-79.5-61.7V62.7c0-16.1-13.1-29.1-29.1-29.1H309L273.6 6.1c-5-3.9-11.3-6.1-17.7-6.1-6.4 0-12.7 2.2-17.7 6.1l-35.4 27.4h-89.7C97 33.5 84 46.6 84 62.6v63.2L4.5 187.5l-.2.2c-.2.2-.3.4-.5.6-.4.4-.9 1-1.3 1.6-.3.4-.7.9-1 1.5l-.2.3-.1.3c-.2.5-.5 1.2-.6 1.9-.2.8-.4 1.5-.4 2.2-.1.3-.1.7-.1 1v285.8c0 5.7 1.8 11.4 5 16.2 0 0 1.4 1.8 1.5 1.9 5.4 6.8 13.8 10.9 22.6 11H483c8.9 0 17.2-4 22.7-11.1.3-.3.6-.7.8-1.1 0-.1.1-.1.1-.2 3.5-5 5.4-10.8 5.4-16.8V197.1c0-.5-.1-.8-.2-1.1zM243.1 33.5l10.3-8.1c.7-.6 1.6-.9 2.6-.9.9 0 1.8.3 2.6.9l10.3 8h-25.8zm10.2 290.1c.7-.6 1.6-.9 2.6-.9.9 0 1.8.3 2.6.9l210.7 163.6H42.6l210.7-163.6zm-80.1-5.8c2-2.6 2.9-5.8 2.5-9.1-.4-3.3-2.1-6.2-4.7-8.2L35.2 194.9 83.9 157v56.8c0 6.8 5.5 12.3 12.3 12.3s12.3-5.5 12.3-12.3V62.7c0-2.4 2-4.4 4.4-4.4h285.8c2.4 0 4.4 2 4.4 4.4V214c0 6.8 5.5 12.3 12.3 12.3s12.3-5.5 12.3-12.3v-56.8l48.7 37.9-136 105.6c-3.5 2.8-5.3 7.1-4.7 11.4.6 4.4 3.5 8.1 7.7 9.8 1.5.6 3 .9 4.6.9 2.8 0 5.5-.9 7.6-2.6L487.2 218l-.1 252.2-213.5-166c-5-3.9-11.3-6.1-17.7-6.1-6.4 0-12.7 2.2-17.7 6.1L24.5 470.1V217.9l131.3 102c2.2 1.7 4.8 2.6 7.6 2.6 3.8 0 7.4-1.7 9.8-4.7z"/><path d="M256 281.6c6.8 0 12.3-5.5 12.3-12.3 0-6.8-5.5-12.3-12.3-12.3-44.1 0-80.1-35.9-80.1-80.1s35.9-80.1 80.1-80.1 80.1 35.9 80.1 80.1v33.6c0 7.1-5.8 12.9-12.9 12.9-7.1 0-12.9-5.8-12.9-12.9v-33.6c0-6.8-5.5-12.3-12.3-12.3s-12.3 5.5-12.3 12.3c0 16.3-13.3 29.6-29.6 29.6s-29.6-13.3-29.6-29.6 13.3-29.6 29.6-29.6c6.8 0 12.3-5.5 12.3-12.3 0-6.8-5.5-12.3-12.3-12.3h-.2c-24.1 0-45.6 16.2-52.2 39.5-6.7 23.3 3.1 48.5 23.7 61.2 8.6 5.3 18.4 8.1 28.5 8.1 11.3 0 22.4-3.5 31.5-10 4.6 15.8 19.3 26.9 35.9 26.9.7 0 1.4 0 2.1-.1 19.9-1.3 35.5-17.9 35.5-37.7V177c0-57.8-47-104.8-104.8-104.8s-104.8 47-104.8 104.8c-.1 57.6 46.9 104.6 104.7 104.6z"/></symbol><symbol id="pdf" viewBox="0 0 56 60"><g><path d="M48.1 14.5L36.7 3.1c-.2-.2-.5-.3-.8-.3H12.1c-2.5 0-4.5 2-4.5 4.5v45.3c0 2.5 2 4.5 4.5 4.5h31.7c2.5 0 4.5-2 4.5-4.5V15.3c.1-.3 0-.6-.2-.8zm-11-7.8l7.5 7.5h-5.2c-1.2 0-2.3-1-2.3-2.3V6.7zm9 46c0 1.2-1 2.3-2.3 2.3H12.1c-1.2 0-2.3-1-2.3-2.3V7.3c0-1.2 1-2.3 2.3-2.3h22.7v6.8c0 2.5 2 4.5 4.5 4.5h6.8v36.4z"/><path d="M33.8 36.1c-1-.8-2-1.7-2.7-2.3-.9-.9-1.6-1.7-2.3-2.5 1-3.2 1.5-4.9 1.5-5.8 0-3.8-1.4-4.5-3.4-4.5-1.6 0-3.4.8-3.4 4.6 0 1.7.9 3.7 2.8 6.1-.4 1.4-1 3-1.6 4.7-.3.9-.6 1.6-.9 2.4-.3.1-.5.2-.8.4-.9.5-1.8.9-2.6 1.2-3.6 1.7-6 2.8-6 5.1 0 1.6 1.8 2.6 3.4 2.6 2.1 0 5.3-2.8 7.6-7.6 2.4-1 5.4-1.7 7.8-2.1 1.9 1.5 4 2.9 5 2.9 2.8 0 3.4-1.6 3.4-3 0-2.7-3.1-2.7-4.5-2.7-.5.1-1.7.2-3.3.5zm-16 9.8c-.6 0-1.1-.3-1.1-.4 0-.8 2.4-1.9 4.7-3 .1-.1.3-.1.4-.2-1.7 2.4-3.4 3.6-4 3.6zm7.9-20.3c0-2.4.7-2.4 1.1-2.4.8 0 1.1 0 1.1 2.3 0 .5-.3 1.7-.9 3.5-.8-1.4-1.3-2.5-1.3-3.4zm.9 12.2c.1-.2.1-.4.2-.6.4-1.3.8-2.4 1.1-3.4.5.5 1 1 1.5 1.6.2.2.7.7 1.4 1.3-1.3.2-2.8.6-4.2 1.1zm12.7.5c0 .5 0 .7-1.1.7-.3-.1-1-.5-1.9-1.1.3 0 .6-.1.7-.1 1.7.1 2.2.3 2.3.5z"/></g></symbol><symbol id="pinterest" viewBox="0 0 23 23"><path d="M9.9 15.2c-.6 3.1-1.4 6.2-3.6 7.7-.7-4.7 1-8.3 1.8-12.1-1.3-2.2.2-6.6 3-5.5 3.5 1.3-3 8.2 1.3 9 4.5.9 6.4-7.7 3.6-10.5-4-4-11.8-.1-10.8 5.7.2 1.4 1.7 1.8.6 3.8-2.6-.6-3.4-2.6-3.3-5.3.2-4.4 4-7.4 7.9-7.9 4.9-.5 9.5 1.8 10.1 6.3.7 5.1-2.2 10.6-7.4 10.2-1.5-.1-2.1-.8-3.2-1.4z"/></symbol><symbol id="play-arrow" viewBox="0 0 357 357"><path d="M38.25 0v357l280.5-178.5z"/></symbol><symbol id="play-button" viewBox="0 0 15 15"><path d="M10.1 7.9l-3.8 2.2c-.4.2-.6 0-.6-.4V5.3c0-.4.3-.5.6-.3l3.8 2.2c.4.2.4.5 0 .7z"/><path d="M7.5 14.8c-4 0-7.3-3.3-7.3-7.3S3.5.2 7.5.2s7.3 3.3 7.3 7.3-3.3 7.3-7.3 7.3zm0-13.7C4 1.1 1.1 4 1.1 7.5c0 3.5 2.9 6.4 6.4 6.4 3.5 0 6.4-2.9 6.4-6.4 0-3.5-2.9-6.4-6.4-6.4z"/></symbol><symbol id="plus" viewBox="0 0 24 24"><path d="M13 4.9h-2V11H4.9v2H11v6.1h2V13h6.1v-2H13z"/><path d="M12 24C5.4 24 0 18.6 0 12S5.4 0 12 0s12 5.4 12 12-5.4 12-12 12zm0-22C6.5 2 2 6.5 2 12s4.5 10 10 10 10-4.5 10-10S17.5 2 12 2z"/></symbol><symbol id="product-sheet" viewBox="0 0 50 43"><style>.st0{fill:#1e201d}.st1{fill:none;stroke:#030303;stroke-width:1.2;stroke-linecap:round;stroke-linejoin:round;stroke-miterlimit:10}.st2{fill:#030303}</style><path class="st0" d="M45 .6H5C3.4.6 2 2 2 3.6v36c0 1.6 1.4 3 3 3h40c1.6 0 3-1.4 3-3v-36c0-1.6-1.4-3-3-3zm1 39c0 .6-.4 1-1 1H5c-.6 0-1-.4-1-1v-36c0-.5.4-1 1-1h9 31c.6 0 1 .4 1 1v36z"/><path class="st1" d="M14.1 17.2s0 .6.3.9c.3.2 1 1.1 1 2v8.7s0 .5-.2.8c0 0-.1.1-.2.1H11.4c-.2 0-.2-.1-.2-.1-.2-.3-.2-.8-.2-.8v-8.7c0-.9.7-1.8 1-2 .3-.2.3-.9.3-.9s0-3.9.1-3.9h1.7v3.9z"/><path class="st2" d="M38.8 17.2h-16c-.5 0-1-.4-1-1s.5-1 1-1h16c.5 0 1 .4 1 1s-.4 1-1 1zM38.8 22.5h-16c-.5 0-1-.4-1-1 0-.5.5-1 1-1h16c.5 0 1 .4 1 1s-.4 1-1 1zM38.8 27.8h-16c-.5 0-1-.4-1-1 0-.5.5-1 1-1h16c.5 0 1 .4 1 1 0 .5-.4 1-1 1z"/></symbol><symbol id="report" viewBox="-49 187 512 421"><path d="M125.1 431.3h-22.9c-2.8.2-5.6 1.3-7.7 3.5L26.3 503s0-60.4-.1-60.7c-.5-6.2-5.7-11-12-11h-34.3c-2.6 0-4.7-2.1-4.7-4.7v-206c0-2.6 2.1-4.7 4.7-4.7h343.5c2.6 0 4.7 2.1 4.7 4.7v79.1c0 6.7 5.4 12.1 12.1 12.1s12.1-5.4 12.1-12.1v-79.1c0-15.9-12.9-28.8-28.8-28.8H-20.2c-15.9 0-28.8 12.9-28.8 28.8v206.1c0 15.9 12.9 28.8 28.8 28.8H2.1v76.7c0 4.9 2.9 9.3 7.5 11.2 1.5.6 3.1.9 4.6.9 3.1 0 6.2-1.2 8.5-3.5l85.3-85.3h17.1c6.7 0 12.1-5.4 12.1-12.1 0-6.7-5.5-12.1-12.1-12.1z"/><path d="M434.2 339.5H193.8c-15.9 0-28.8 12.9-28.8 28.8v140.6c0 15.9 12.9 28.8 28.8 28.8h150.5l61 61c2.3 2.3 5.4 3.5 8.5 3.5 1.6 0 3.1-.3 4.6-.9 4.5-1.9 7.5-6.3 7.5-11.2v-52.4h8.3c15.9 0 28.8-12.9 28.8-28.8V368.3c0-15.9-12.9-28.8-28.8-28.8zm4.6 169.4c0 2.6-2.1 4.7-4.7 4.7h-20.4c-6.4 0-11.6 4.9-12 11.1l-.1 36.3-43.9-43.9-.1-.1c-.2-.2-.3-.3-.5-.4-2.1-1.9-4.9-3-8-3H193.8c-2.6 0-4.7-2.1-4.7-4.7V368.3c0-2.6 2.1-4.7 4.7-4.7h240.4c2.6 0 4.7 2.1 4.7 4.7v140.6zM41.7 271.6c-6.7 0-12.1 5.4-12.1 12.1 0 6.7 5.4 12.1 12.1 12.1h219.8c6.7 0 12.1-5.4 12.1-12.1 0-6.7-5.4-12.1-12.1-12.1H41.7zM125.1 351.5H41.7c-6.7 0-12.1 5.4-12.1 12.1 0 6.7 5.4 12.1 12.1 12.1h83.4c6.7 0 12.1-5.4 12.1-12.1 0-6.7-5.5-12.1-12.1-12.1z"/><path d="M291.5 451.1c-7.4 0-13.5-6-13.5-13.5 0-7.4 6-13.5 13.5-13.5 7.4 0 13.5 6 13.5 13.5s-6.1 13.5-13.5 13.5m28.9-7.9v-11.5h11.3c-2.9-19.5-19.7-34.6-40-34.6-22.3 0-40.5 18.1-40.5 40.5 0 22.3 18.1 40.5 40.5 40.5 20.4 0 37.3-15.2 40.1-34.9h-11.4zM335.2 431.7v-33.3h26.7V476h-26.7v-32.8h11.2v-11.5z"/></symbol><symbol id="search" viewBox="0 0 17 20"><style>.st0{fill:#4d4d4f}</style><path class="st0" d="M16.2 16.3l-3.1-3.1c.9-1.2 1.4-2.6 1.4-4.2 0-3.9-3.2-7-7-7s-7 3.2-7 7 3.2 7 7 7c1.6 0 3-.5 4.2-1.4l3.1 3.1c.2.2.5.3.7.3s.5-.1.7-.3c.4-.4.4-1 0-1.4zM2.5 9c0-2.8 2.3-5 5-5s5 2.3 5 5-2.3 5-5 5-5-2.2-5-5z"/></symbol><symbol id="tiles" viewBox="0 0 23 14"><style>.st0{fill:#1f1e21}</style><path class="st0" d="M12.1 0h3v4h-3zM16.1 0h3v4h-3zM12.1 5h3v4h-3zM16.1 5h3v4h-3zM12.1 10h3v4h-3zM16.1 10h3v4h-3zM20.1 0h3v4h-3zM20.1 5h3v4h-3zM20.1 10h3v4h-3zM.2 6.4l4.7-4.7c.3-.3.8-.3 1.1 0 .3.3.3.8 0 1.1L1.8 7.1l4.2 4c.3.3.3.8 0 1.1-.3.3-.8.3-1.1 0L.2 7.4C0 7.3 0 7.1 0 6.9s0-.4.2-.5z"/></symbol><symbol id="twitter" viewBox="0 0 23 23"><path d="M22.4 2.4c-.9.5-1.9.9-3 1.2-.9-1-2.1-1.6-3.5-1.6-2.6 0-4.7 2.1-4.7 4.8 0 .4 0 .7.1 1.1-3.9-.2-7.4-2.1-9.7-5-.4.7-.6 1.5-.6 2.4 0 1.7.8 3.1 2.1 4-.8 0-1.5-.3-2.2-.6v.1c0 2.3 1.6 4.3 3.8 4.7-.4.1-.8.2-1.2.2-.3 0-.6 0-.9-.1.6 1.9 2.3 3.3 4.4 3.3C5.4 18.2 3.4 19 1.1 19c-.4 0-.8 0-1.1-.1C2.1 20.2 4.6 21 7.2 21c8.7 0 13.4-7.3 13.4-13.7v-.6c.9-.7 1.7-1.5 2.4-2.5-.8.4-1.8.6-2.7.8 1-.6 1.7-1.5 2.1-2.6z"/></symbol><symbol id="user" viewBox="0 0 15 20"><style>.st0{fill:#4d4d4f}</style><path class="st0" d="M7.5 12.6c-2.2 0-4-1.8-4-4V5.8c0-2.2 1.8-4 4-4s4 1.8 4 4v2.8c0 2.2-1.8 4-4 4zm0-8.8c-1.1 0-2 .9-2 2v2.8c0 1.1.9 2 2 2s2-.9 2-2V5.8c0-1.1-.9-2-2-2zM14.6 18.2h-2c0-1.4-1.1-2.5-2.5-2.5H4.9c-1.4 0-2.5 1.1-2.5 2.5h-2c0-2.5 2-4.5 4.5-4.5h5.2c2.4 0 4.5 2 4.5 4.5z"/></symbol><symbol id="weight" viewBox="0 0 15 15"><style>.st0{fill:#949494}</style><path class="st0" d="M13.4 13.4H1.6c-.4 0-.7-.2-1-.5s-.3-.7-.2-1.1l2.1-6.4c.2-.5.6-.8 1.1-.8h1.5c0-.2-.1-.3-.1-.5 0-1.3 1.1-2.4 2.4-2.4s2.4 1.1 2.4 2.4c0 .2 0 .3-.1.5h1.5c.5 0 1 .3 1.1.8l2.1 6.4c.1.4.1.8-.2 1.1s-.4.5-.8.5zM3.7 5.6c-.1 0-.2.1-.2.1l-2.1 6.4v.2s.1.1.2.1h11.8c.1 0 .1 0 .2-.1 0 0 .1-.1 0-.2l-2.1-6.4c0-.1-.1-.1-.2-.1h-3l.5-.8c.1-.2.2-.5.2-.7 0-.8-.6-1.4-1.4-1.4s-1.5.6-1.5 1.4c0 .3.1.5.2.7l.5.8H3.7z"/></symbol><symbol id="youtube" viewBox="0 0 23 23"><path d="M22 7.2C22 5.4 20.6 4 18.9 4H4.1C2.4 4 1 5.4 1 7.2v8.6C1 17.6 2.4 19 4.1 19h14.7c1.7 0 3.1-1.4 3.1-3.2V7.2zM9.4 15.1v-8l6 4-6 4z"/></symbol></svg>